<svg width="36" height="36" viewBox="0 0 36 36" fill="#000" xmlns="http://www.w3.org/2000/svg">
<path fill-rule="evenodd" clip-rule="evenodd" d="M32.3617 28.8763V7.47283C32.3617 6.13485 31.324 5.04956 30.0535 5.04956H5.50331C4.22884 5.04956 3.19507 6.13485 3.19507 7.47283V28.8763C3.19507 30.2143 4.22884 31.2996 5.50331 31.2996H30.0535C31.324 31.2996 32.3617 30.2143 32.3617 28.8763ZM30.9034 9.42456V28.0349C30.9034 28.254 30.7195 28.4301 30.4947 28.4301H5.06618C4.83731 28.4301 4.6534 28.254 4.6534 28.0349V9.42456H30.9034ZM26.3998 7.21786C26.3998 6.86576 26.1117 6.58408 25.7606 6.58408C25.4055 6.58408 25.1214 6.86576 25.1214 7.21786C25.1214 7.56605 25.4055 7.85164 25.7606 7.85164C26.1117 7.85164 26.3998 7.56605 26.3998 7.21786ZM29.8089 7.85164C29.4577 7.85164 29.1697 7.56605 29.1697 7.21786C29.1697 6.86576 29.4577 6.58408 29.8089 6.58408C30.164 6.58408 30.4481 6.86576 30.4481 7.21786C30.4481 7.56605 30.164 7.85164 29.8089 7.85164ZM28.4239 7.21786C28.4239 6.86576 28.1359 6.58408 27.7847 6.58408C27.4296 6.58408 27.1455 6.86576 27.1455 7.21786C27.1455 7.56605 27.4296 7.85164 27.7847 7.85164C28.1359 7.85164 28.4239 7.56605 28.4239 7.21786ZM20.5925 15.9761L23.8363 19.2166L20.5925 22.4572C20.5373 22.5123 20.5097 22.5753 20.5097 22.6462C20.5097 22.7171 20.5373 22.7801 20.5925 22.8352L21.0064 23.2486C21.0615 23.3038 21.1246 23.3313 21.1956 23.3313C21.2665 23.3313 21.3296 23.3038 21.3847 23.2486L25.2316 19.4056C25.2868 19.3505 25.3144 19.2875 25.3144 19.2166C25.3144 19.1458 25.2868 19.0828 25.2316 19.0276L21.3847 15.1846C21.3296 15.1295 21.2665 15.102 21.1956 15.102C21.1246 15.102 21.0615 15.1295 21.0064 15.1846L20.5925 15.5941C20.5373 15.6493 20.5097 15.7123 20.5097 15.7871C20.5097 15.858 20.5373 15.921 20.5925 15.9761ZM15.713 24.3944L18.7953 13.7474C18.815 13.6765 18.8583 13.6254 18.9214 13.5899C18.9844 13.5505 19.0475 13.5466 19.1145 13.5663L19.6269 13.708C19.6978 13.7277 19.753 13.771 19.7885 13.834C19.824 13.897 19.8319 13.964 19.8082 14.0388L16.7299 24.6819C16.7063 24.7527 16.6669 24.8079 16.6038 24.8433C16.5368 24.8787 16.4737 24.8866 16.4067 24.863L15.8983 24.7252C15.8234 24.7015 15.7722 24.6582 15.7367 24.5952C15.7012 24.5322 15.6933 24.4653 15.713 24.3944ZM10.2936 19.4057L14.1365 23.2487C14.1917 23.3039 14.2547 23.3314 14.3296 23.3314C14.4005 23.3314 14.4636 23.3039 14.5188 23.2487L14.9287 22.8353C14.9839 22.7802 15.0115 22.7172 15.0115 22.6463C15.0115 22.5754 14.9839 22.5124 14.9287 22.4573L11.6888 19.2167L14.9287 15.9762C14.9839 15.921 15.0115 15.858 15.0115 15.7872C15.0115 15.7123 14.9839 15.6494 14.9287 15.5942L14.5188 15.1847C14.4636 15.1296 14.4005 15.102 14.3296 15.102C14.2547 15.102 14.1917 15.1296 14.1365 15.1847L10.2936 19.0277C10.2384 19.0829 10.2108 19.1459 10.2108 19.2167C10.2108 19.2876 10.2384 19.3506 10.2936 19.4057Z" fill="#000"/>
</svg>
